<svg xmlns="http://www.w3.org/2000/svg" xmlns:xlink="http://www.w3.org/1999/xlink" width="500" zoomAndPan="magnify" viewBox="0 0 375 374.999991" height="500" preserveAspectRatio="xMidYMid meet" version="1.0"><defs><g/><clipPath id="ae24cd6158"><path d="M 110 149 L 277 149 L 277 270.980469 L 110 270.980469 Z M 110 149 " clip-rule="nonzero"/></clipPath><clipPath id="5a01ae5938"><path d="M 108.507812 146 L 279.507812 146 L 279.507812 270.980469 L 108.507812 270.980469 Z M 108.507812 146 " clip-rule="nonzero"/></clipPath></defs><path stroke-linecap="butt" transform="matrix(0.462848, 0, 0, 0.462848, 74.066337, 74.696729)" fill-opacity="1" fill="#153867" fill-rule="nonzero" stroke-linejoin="miter" d="M 308.889058 161.90199 C 308.889058 161.90199 296.390028 109.652503 283.393063 87.903685 C 270.387659 66.146428 243.642605 56.651892 225.640965 58.154139 C 207.639325 59.647946 179.138837 75.396216 172.640354 99.896339 C 166.141872 124.396462 179.636773 174.401019 179.636773 174.401019 L 159.390202 180.899502 C 159.390202 180.899502 136.637073 51.647217 224.636654 50.398158 C 312.636235 49.149099 329.886752 164.400108 329.886752 164.400108 Z M 308.889058 161.90199 " stroke="#130f06" stroke-width="1" stroke-opacity="1" stroke-miterlimit="4"/><path stroke-linecap="butt" transform="matrix(0.462848, 0, 0, 0.462848, 74.066337, 74.696729)" fill-opacity="1" fill="#153867" fill-rule="nonzero" stroke-linejoin="miter" d="M 333.439818 133.798163 L 313.108852 136.414435 C 309.817412 136.836415 307.496526 139.840908 307.918505 143.123908 L 308.939695 151.05712 C 309.361675 154.348559 312.366168 156.669446 315.657607 156.247466 L 335.988574 153.639634 C 339.271573 153.217654 341.59246 150.204722 341.17892 146.921722 L 340.15773 138.98851 C 339.735751 135.69707 336.722818 133.376184 333.439818 133.798163 Z M 338.182867 146.55882 C 338.503571 149.073817 336.596224 151.386264 333.920875 151.723847 L 317.353964 153.859063 C 314.678615 154.196647 312.248014 152.441212 311.927309 149.934655 L 311.142428 143.875031 C 310.821723 141.368473 312.73751 139.056026 315.412859 138.710003 L 331.97133 136.583227 C 334.655119 136.237204 337.08572 137.992638 337.406424 140.507635 Z M 338.182867 146.55882 " stroke="#130f06" stroke-width="1" stroke-opacity="1" stroke-miterlimit="4"/><path stroke-linecap="butt" transform="matrix(0.462848, 0, 0, 0.462848, 74.066337, 74.696729)" fill-opacity="1" fill="#153867" fill-rule="nonzero" stroke-linejoin="miter" d="M 175.501375 145.799257 L 155.170408 148.407089 C 151.878969 148.829069 149.558082 151.842002 149.980062 155.125001 L 151.001252 163.058214 C 151.423231 166.349653 154.427724 168.670539 157.719163 168.24856 L 178.05013 165.640727 C 181.33313 165.218748 183.654016 162.205815 183.232037 158.922816 L 182.219286 150.989603 C 181.797307 147.698164 178.784374 145.377277 175.501375 145.799257 Z M 180.244423 158.559913 C 180.565127 161.07491 178.65778 163.387358 175.982431 163.724941 L 159.415521 165.851717 C 156.740171 166.19774 154.30957 164.442306 153.980426 161.935748 L 153.203984 155.876124 C 152.88328 153.369567 154.799066 151.05712 157.474415 150.711097 L 174.032886 148.584321 C 176.708236 148.238298 179.138837 149.993732 179.467981 152.508729 Z M 180.244423 158.559913 " stroke="#130f06" stroke-width="1" stroke-opacity="1" stroke-miterlimit="4"/><g clip-path="url(#ae24cd6158)"><path fill="#153867" d="M 270.609375 256.902344 C 270.609375 256.902344 279.40625 255.511719 275.933594 225.890625 C 272.460938 196.269531 271.074219 181.226562 268.527344 174.050781 C 265.980469 166.878906 259.039062 149.058594 229.417969 149.289062 C 199.792969 149.519531 154.898438 150.445312 133.144531 160.398438 C 111.390625 170.347656 112.902344 179.78125 112.546875 183.078125 C 108.84375 217.558594 111.945312 244.542969 115.09375 257.132812 C 118.332031 270.09375 120.183594 270.554688 128.054688 270.554688 C 139.808594 270.554688 170.171875 268.242188 202.339844 265.464844 C 234.507812 262.6875 270.609375 256.902344 270.609375 256.902344 Z M 270.609375 256.902344 " fill-opacity="1" fill-rule="nonzero"/></g><g clip-path="url(#5a01ae5938)"><path stroke-linecap="butt" transform="matrix(0.462848, 0, 0, 0.462848, 74.066337, 74.696729)" fill="none" stroke-linejoin="miter" d="M 424.638003 393.661507 C 424.638003 393.661507 443.643954 390.657014 436.141161 326.659621 C 428.638367 262.662227 425.642314 230.161375 420.139702 214.657853 C 414.637091 199.16277 399.639944 160.661371 335.642551 161.159306 C 271.636718 161.657242 174.640537 163.657424 127.640473 185.161494 C 80.640409 206.657123 83.90653 227.038728 83.138527 234.16174 C 75.137798 308.65798 81.838831 366.958652 88.641138 394.159443 C 95.637557 422.161995 99.637921 423.157866 116.64369 423.157866 C 142.03841 423.157866 207.639325 418.16163 277.139329 412.161083 C 346.639333 406.160536 424.638003 393.661507 424.638003 393.661507 Z M 424.638003 393.661507 " stroke="#130f06" stroke-width="1" stroke-opacity="1" stroke-miterlimit="4"/></g><path stroke-linecap="butt" transform="matrix(0.462848, 0, 0, 0.462848, 74.066337, 74.696729)" fill-opacity="1" fill="#153867" fill-rule="nonzero" stroke-linejoin="miter" d="M 434.140978 354.155797 C 434.140978 354.155797 437.137032 372.663813 429.642678 379.660231 C 422.139885 386.656649 410.636727 388.656832 403.640309 389.163207 C 396.64389 389.661142 130.636527 415.157137 130.636527 415.157137 C 130.636527 415.157137 108.642961 416.659383 103.14035 408.658654 C 97.637739 400.657925 95.637557 402.160172 94.14375 369.161384 C 92.641503 336.162596 90.641321 252.661316 92.641503 237.157793 C 94.641685 221.66271 98.64205 202.656759 119.639744 189.161858 C 140.637438 175.658518 166.639808 170.662282 242.140359 162.661553 C 317.64091 154.660824 356.142309 162.661553 366.641156 168.164164 C 377.140003 173.658336 406.636362 186.157365 413.143284 219.662528 C 419.641767 253.159252 434.140978 354.155797 434.140978 354.155797 Z M 434.140978 354.155797 " stroke="#130f06" stroke-width="1" stroke-opacity="1" stroke-miterlimit="4"/><path stroke-linecap="butt" transform="matrix(0.462848, 0, 0, 0.462848, 74.066337, 74.696729)" fill-opacity="1" fill="#153867" fill-rule="nonzero" stroke-linejoin="miter" d="M 337.136358 164.661735 L 336.140486 150.660459 L 314.636417 151.656331 L 315.142792 166.163982 Z M 337.136358 164.661735 " stroke="#130f06" stroke-width="1" stroke-opacity="1" stroke-miterlimit="4"/><path stroke-linecap="butt" transform="matrix(0.462848, 0, 0, 0.462848, 74.066337, 74.696729)" fill-opacity="1" fill="#153867" fill-rule="nonzero" stroke-linejoin="miter" d="M 177.63659 157.158942 L 179.636773 172.156089 L 159.137014 177.6587 L 156.140961 160.163435 Z M 177.63659 157.158942 " stroke="#130f06" stroke-width="1" stroke-opacity="1" stroke-miterlimit="4"/><path stroke-linecap="butt" transform="matrix(0.462848, 0, 0, 0.462848, 74.066337, 74.696729)" fill-opacity="1" fill="#153867" fill-rule="nonzero" stroke-linejoin="miter" d="M 305.141881 90.401803 C 305.141881 90.401803 305.032166 90.216132 304.812737 89.85323 C 301.715408 84.755719 276.371326 45.815462 226.138901 48.153227 C 172.387167 50.651345 163.390566 95.651227 163.390566 95.651227 L 161.137196 82.654262 C 161.137196 82.654262 178.142966 34.405139 222.391724 34.151952 C 266.640482 33.907204 288.887235 53.655839 299.892457 75.902592 C 310.88924 98.157784 305.141881 90.401803 305.141881 90.401803 Z M 305.141881 90.401803 " stroke="#130f06" stroke-width="1" stroke-opacity="1" stroke-miterlimit="4"/><path stroke-linecap="butt" transform="matrix(0.462848, 0, 0, 0.462848, 74.066337, 74.696729)" fill-opacity="1" fill="#153867" fill-rule="nonzero" stroke-linejoin="miter" d="M 334.63824 139.663677 L 314.138481 143.157666 C 314.138481 143.157666 317.142974 146.660095 314.138481 137.157119 C 311.142428 127.662583 304.13757 107.162824 299.63927 94.15742 C 295.140969 81.160455 272.641029 30.160027 224.636654 35.156262 C 170.049401 40.844545 165.643936 72.163854 168.142054 96.157602 C 170.640172 120.159789 177.138655 154.162888 177.138655 154.162888 L 155.643025 158.163253 C 155.643025 158.163253 137.143449 46.161485 214.644182 33.662455 C 292.136476 21.163426 327.641822 113.661307 334.63824 139.663677 Z M 334.63824 139.663677 " stroke="#130f06" stroke-width="1" stroke-opacity="1" stroke-miterlimit="4"/><g fill="#c5c5c5" fill-opacity="1"><g transform="translate(146.397939, 218.690542)"><g><path d="M 1.1875 0.109375 C 0.800781 0.148438 0.472656 0.128906 0.203125 0.046875 C -0.0664062 -0.0351562 -0.210938 -0.207031 -0.234375 -0.46875 C -0.265625 -0.75 -0.171875 -0.976562 0.046875 -1.15625 C 0.265625 -1.34375 0.5625 -1.519531 0.9375 -1.6875 C 1.832031 -2.039062 2.59375 -2.515625 3.21875 -3.109375 C 3.84375 -3.710938 4.3125 -4.492188 4.625 -5.453125 C 5.226562 -7.429688 5.800781 -9.328125 6.34375 -11.140625 C 6.882812 -12.953125 7.394531 -14.75 7.875 -16.53125 C 8.363281 -18.320312 8.851562 -20.144531 9.34375 -22 C 9.832031 -23.851562 10.328125 -25.804688 10.828125 -27.859375 C 11.054688 -28.878906 11.207031 -29.664062 11.28125 -30.21875 C 11.351562 -30.769531 11.425781 -31.179688 11.5 -31.453125 C 11.945312 -31.628906 12.375 -31.804688 12.78125 -31.984375 C 13.1875 -32.160156 13.632812 -32.367188 14.125 -32.609375 C 14.53125 -32.878906 14.875 -33.203125 15.15625 -33.578125 C 15.445312 -33.960938 15.660156 -34.265625 15.796875 -34.484375 C 15.890625 -34.554688 15.984375 -34.601562 16.078125 -34.625 C 16.171875 -34.65625 16.273438 -34.597656 16.390625 -34.453125 C 16.503906 -34.253906 16.601562 -34.0625 16.6875 -33.875 C 16.769531 -33.695312 16.859375 -33.507812 16.953125 -33.3125 C 17.878906 -31.125 18.84375 -28.910156 19.84375 -26.671875 C 20.84375 -24.441406 21.828125 -22.242188 22.796875 -20.078125 C 23.765625 -17.921875 24.703125 -15.851562 25.609375 -13.875 C 26.523438 -11.894531 27.351562 -10.078125 28.09375 -8.421875 C 28.476562 -7.597656 28.914062 -6.953125 29.40625 -6.484375 C 29.894531 -6.023438 30.410156 -5.6875 30.953125 -5.46875 C 31.503906 -5.257812 32.113281 -5.101562 32.78125 -5 C 33.207031 -4.96875 33.535156 -4.878906 33.765625 -4.734375 C 34.003906 -4.597656 34.140625 -4.390625 34.171875 -4.109375 C 34.191406 -3.910156 34.101562 -3.753906 33.90625 -3.640625 C 33.71875 -3.523438 33.460938 -3.453125 33.140625 -3.421875 C 32.566406 -3.359375 31.835938 -3.296875 30.953125 -3.234375 C 30.078125 -3.171875 29.175781 -3.113281 28.25 -3.0625 C 27.320312 -3.007812 26.488281 -2.941406 25.75 -2.859375 C 25.113281 -2.796875 24.410156 -2.707031 23.640625 -2.59375 C 22.867188 -2.476562 22.09375 -2.359375 21.3125 -2.234375 C 20.539062 -2.117188 19.882812 -2.035156 19.34375 -1.984375 C 19.019531 -1.953125 18.726562 -1.976562 18.46875 -2.0625 C 18.21875 -2.144531 18.082031 -2.300781 18.0625 -2.53125 C 18.03125 -2.78125 18.132812 -3.003906 18.375 -3.203125 C 18.625 -3.398438 18.914062 -3.550781 19.25 -3.65625 C 20.375 -3.96875 21.171875 -4.351562 21.640625 -4.8125 C 22.109375 -5.269531 22.238281 -5.867188 22.03125 -6.609375 C 21.875 -7.148438 21.660156 -7.78125 21.390625 -8.5 C 21.117188 -9.226562 20.832031 -9.984375 20.53125 -10.765625 C 20.238281 -11.554688 19.945312 -12.273438 19.65625 -12.921875 C 19.5625 -13.171875 19.445312 -13.34375 19.3125 -13.4375 C 19.175781 -13.539062 18.9375 -13.570312 18.59375 -13.53125 L 10 -12.609375 C 9.769531 -12.585938 9.597656 -12.5 9.484375 -12.34375 C 9.367188 -12.1875 9.296875 -11.960938 9.265625 -11.671875 C 9.179688 -11.234375 9.082031 -10.742188 8.96875 -10.203125 C 8.851562 -9.671875 8.738281 -9.113281 8.625 -8.53125 C 8.507812 -7.957031 8.40625 -7.421875 8.3125 -6.921875 C 8.21875 -6.429688 8.160156 -6.003906 8.140625 -5.640625 C 8.066406 -4.773438 8.285156 -4.117188 8.796875 -3.671875 C 9.316406 -3.222656 10.164062 -2.914062 11.34375 -2.75 C 12.21875 -2.632812 12.675781 -2.351562 12.71875 -1.90625 C 12.738281 -1.707031 12.65625 -1.539062 12.46875 -1.40625 C 12.28125 -1.28125 11.992188 -1.195312 11.609375 -1.15625 C 10.878906 -1.070312 10.113281 -1.007812 9.3125 -0.96875 C 8.507812 -0.9375 7.632812 -0.867188 6.6875 -0.765625 C 5.726562 -0.660156 4.800781 -0.507812 3.90625 -0.3125 C 3.007812 -0.125 2.101562 0.015625 1.1875 0.109375 Z M 11.03125 -14.953125 L 17.671875 -15.671875 C 18.117188 -15.710938 18.332031 -15.828125 18.3125 -16.015625 C 18.3125 -16.109375 18.296875 -16.1875 18.265625 -16.25 C 18.242188 -16.3125 18.210938 -16.410156 18.171875 -16.546875 L 13.640625 -27.203125 C 13.460938 -27.617188 13.328125 -27.820312 13.234375 -27.8125 C 13.171875 -27.8125 13.082031 -27.597656 12.96875 -27.171875 L 10.15625 -15.671875 C 10.101562 -15.503906 10.082031 -15.375 10.09375 -15.28125 C 10.101562 -15.125 10.195312 -15.019531 10.375 -14.96875 C 10.5625 -14.925781 10.78125 -14.921875 11.03125 -14.953125 Z M 11.03125 -14.953125 "/></g></g></g><g fill="#c5c5c5" fill-opacity="1"><g transform="translate(180.322326, 215.045236)"><g><path d="M 16.953125 -0.859375 C 16.703125 -0.828125 16.5625 -0.953125 16.53125 -1.234375 C 16.488281 -1.585938 16.472656 -2.085938 16.484375 -2.734375 C 16.492188 -3.378906 16.476562 -3.894531 16.4375 -4.28125 C 16.425781 -4.375 16.40625 -4.457031 16.375 -4.53125 C 16.351562 -4.613281 16.34375 -4.671875 16.34375 -4.703125 C 15.46875 -3.515625 14.40625 -2.515625 13.15625 -1.703125 C 11.914062 -0.890625 10.566406 -0.40625 9.109375 -0.25 C 8.078125 -0.132812 7.128906 -0.304688 6.265625 -0.765625 C 5.398438 -1.222656 4.6875 -1.90625 4.125 -2.8125 C 3.5625 -3.71875 3.210938 -4.804688 3.078125 -6.078125 L 2.09375 -15.234375 C 2.007812 -15.960938 1.800781 -16.523438 1.46875 -16.921875 C 1.132812 -17.328125 0.585938 -17.601562 -0.171875 -17.75 C -0.367188 -17.757812 -0.539062 -17.816406 -0.6875 -17.921875 C -0.84375 -18.035156 -0.929688 -18.222656 -0.953125 -18.484375 C -0.984375 -18.734375 -0.9375 -18.929688 -0.8125 -19.078125 C -0.695312 -19.222656 -0.539062 -19.320312 -0.34375 -19.375 C 0.914062 -19.570312 2 -19.804688 2.90625 -20.078125 C 3.820312 -20.359375 4.785156 -20.679688 5.796875 -21.046875 C 5.910156 -21.128906 6.03125 -21.191406 6.15625 -21.234375 C 6.289062 -21.273438 6.421875 -21.300781 6.546875 -21.3125 C 6.960938 -21.351562 7.175781 -21.15625 7.1875 -20.71875 C 7.175781 -19.96875 7.164062 -19.34375 7.15625 -18.84375 C 7.144531 -18.351562 7.179688 -17.738281 7.265625 -17 L 8.25 -7.78125 C 8.332031 -7.03125 8.546875 -6.367188 8.890625 -5.796875 C 9.234375 -5.222656 9.679688 -4.785156 10.234375 -4.484375 C 10.785156 -4.179688 11.363281 -4.046875 11.96875 -4.078125 C 12.570312 -4.148438 13.128906 -4.273438 13.640625 -4.453125 C 14.148438 -4.640625 14.632812 -4.988281 15.09375 -5.5 C 15.332031 -5.695312 15.582031 -6.078125 15.84375 -6.640625 C 16.101562 -7.210938 16.1875 -7.925781 16.09375 -8.78125 L 15.234375 -16.796875 C 15.171875 -17.398438 14.984375 -17.867188 14.671875 -18.203125 C 14.359375 -18.546875 13.976562 -18.785156 13.53125 -18.921875 C 13.082031 -19.066406 12.632812 -19.117188 12.1875 -19.078125 C 11.832031 -19.066406 11.550781 -19.113281 11.34375 -19.21875 C 11.144531 -19.320312 11.023438 -19.566406 10.984375 -19.953125 C 10.953125 -20.273438 11.039062 -20.507812 11.25 -20.65625 C 11.457031 -20.8125 11.703125 -20.90625 11.984375 -20.9375 C 13.367188 -21.1875 14.488281 -21.390625 15.34375 -21.546875 C 16.195312 -21.703125 16.910156 -21.859375 17.484375 -22.015625 C 18.066406 -22.171875 18.632812 -22.363281 19.1875 -22.59375 C 19.28125 -22.625 19.382812 -22.648438 19.5 -22.671875 C 19.613281 -22.703125 19.703125 -22.722656 19.765625 -22.734375 C 20.210938 -22.785156 20.453125 -22.640625 20.484375 -22.296875 C 20.492188 -22.203125 20.5 -22.09375 20.5 -21.96875 C 20.5 -21.851562 20.472656 -21.734375 20.421875 -21.609375 C 20.398438 -21.503906 20.390625 -21.222656 20.390625 -20.765625 C 20.390625 -20.316406 20.390625 -19.851562 20.390625 -19.375 C 20.390625 -18.894531 20.40625 -18.523438 20.4375 -18.265625 L 21.625 -7.1875 C 21.707031 -6.4375 21.851562 -5.925781 22.0625 -5.65625 C 22.269531 -5.382812 22.488281 -5.257812 22.71875 -5.28125 C 22.894531 -5.300781 23.164062 -5.335938 23.53125 -5.390625 C 23.894531 -5.453125 24.15625 -5.488281 24.3125 -5.5 C 24.570312 -5.53125 24.785156 -5.488281 24.953125 -5.375 C 25.128906 -5.269531 25.234375 -5.070312 25.265625 -4.78125 C 25.296875 -4.488281 25.265625 -4.269531 25.171875 -4.125 C 25.078125 -3.976562 24.882812 -3.875 24.59375 -3.8125 C 23.175781 -3.519531 21.929688 -3.128906 20.859375 -2.640625 C 19.785156 -2.160156 18.851562 -1.703125 18.0625 -1.265625 C 17.875 -1.179688 17.679688 -1.097656 17.484375 -1.015625 C 17.296875 -0.929688 17.117188 -0.878906 16.953125 -0.859375 Z M 16.953125 -0.859375 "/></g></g></g><g fill="#c5c5c5" fill-opacity="1"><g transform="translate(206.230827, 212.261268)"><g><path d="M 2.109375 -0.078125 C 1.859375 -0.0546875 1.632812 -0.0859375 1.4375 -0.171875 C 1.238281 -0.265625 1.128906 -0.410156 1.109375 -0.609375 C 1.078125 -0.859375 1.15625 -1.054688 1.34375 -1.203125 C 1.53125 -1.359375 1.773438 -1.492188 2.078125 -1.609375 C 2.734375 -1.878906 3.179688 -2.164062 3.421875 -2.46875 C 3.671875 -2.769531 3.769531 -3.160156 3.71875 -3.640625 L 2.5625 -14.375 C 2.488281 -15.101562 2.316406 -15.703125 2.046875 -16.171875 C 1.785156 -16.648438 1.316406 -16.929688 0.640625 -17.015625 C 0.492188 -17.054688 0.351562 -17.128906 0.21875 -17.234375 C 0.0820312 -17.335938 0.00390625 -17.5 -0.015625 -17.71875 C -0.0664062 -18.125 0.078125 -18.394531 0.421875 -18.53125 C 1.359375 -18.882812 2.359375 -19.335938 3.421875 -19.890625 C 4.484375 -20.441406 5.378906 -20.960938 6.109375 -21.453125 C 6.253906 -21.566406 6.414062 -21.679688 6.59375 -21.796875 C 6.78125 -21.921875 6.921875 -21.988281 7.015625 -22 C 7.265625 -22.019531 7.40625 -21.867188 7.4375 -21.546875 C 7.445312 -21.421875 7.460938 -21.132812 7.484375 -20.6875 C 7.515625 -20.25 7.550781 -19.765625 7.59375 -19.234375 C 7.632812 -18.710938 7.664062 -18.238281 7.6875 -17.8125 C 7.695312 -17.625 7.753906 -17.535156 7.859375 -17.546875 C 8.304688 -18.273438 8.816406 -18.957031 9.390625 -19.59375 C 9.960938 -20.238281 10.585938 -20.785156 11.265625 -21.234375 C 11.941406 -21.691406 12.640625 -21.960938 13.359375 -22.046875 C 14.296875 -22.148438 15.015625 -22.035156 15.515625 -21.703125 C 16.015625 -21.367188 16.296875 -20.914062 16.359375 -20.34375 C 16.398438 -19.894531 16.328125 -19.398438 16.140625 -18.859375 C 15.960938 -18.328125 15.707031 -17.859375 15.375 -17.453125 C 15.050781 -17.054688 14.664062 -16.832031 14.21875 -16.78125 C 13.957031 -16.75 13.679688 -16.769531 13.390625 -16.84375 C 13.097656 -16.925781 12.796875 -17.035156 12.484375 -17.171875 C 12.191406 -17.273438 11.882812 -17.367188 11.5625 -17.453125 C 11.238281 -17.546875 10.953125 -17.582031 10.703125 -17.5625 C 9.910156 -17.46875 9.226562 -17.09375 8.65625 -16.4375 C 8.09375 -15.789062 7.898438 -14.609375 8.078125 -12.890625 L 8.984375 -4.484375 C 9.046875 -3.910156 9.296875 -3.492188 9.734375 -3.234375 C 10.179688 -2.984375 10.851562 -2.78125 11.75 -2.625 C 12.101562 -2.5625 12.375 -2.484375 12.5625 -2.390625 C 12.75 -2.296875 12.859375 -2.125 12.890625 -1.875 C 12.929688 -1.457031 12.664062 -1.21875 12.09375 -1.15625 C 11.132812 -1.050781 10.226562 -0.992188 9.375 -0.984375 C 8.519531 -0.972656 7.675781 -0.921875 6.84375 -0.828125 C 6.3125 -0.773438 5.800781 -0.707031 5.3125 -0.625 C 4.820312 -0.539062 4.328125 -0.445312 3.828125 -0.34375 C 3.328125 -0.238281 2.753906 -0.148438 2.109375 -0.078125 Z M 2.109375 -0.078125 "/></g></g></g><g fill="#c5c5c5" fill-opacity="1"><g transform="translate(224.743712, 210.271988)"><g><path d="M 6.046875 0.03125 C 5.273438 0.113281 4.523438 -0.015625 3.796875 -0.359375 C 3.066406 -0.703125 2.457031 -1.179688 1.96875 -1.796875 C 1.476562 -2.421875 1.195312 -3.082031 1.125 -3.78125 C 1.007812 -4.863281 1.234375 -5.78125 1.796875 -6.53125 C 2.367188 -7.289062 3.257812 -8.007812 4.46875 -8.6875 L 8.703125 -11.0625 C 9.304688 -11.394531 9.671875 -11.679688 9.796875 -11.921875 C 9.921875 -12.160156 9.953125 -12.582031 9.890625 -13.1875 L 9.671875 -16 C 9.609375 -16.894531 9.347656 -17.59375 8.890625 -18.09375 C 8.429688 -18.59375 7.804688 -18.796875 7.015625 -18.703125 C 6.609375 -18.660156 6.1875 -18.535156 5.75 -18.328125 C 5.320312 -18.128906 5 -17.882812 4.78125 -17.59375 C 4.664062 -17.457031 4.59375 -17.28125 4.5625 -17.0625 C 4.53125 -16.851562 4.523438 -16.65625 4.546875 -16.46875 C 4.566406 -16.300781 4.597656 -16.097656 4.640625 -15.859375 C 4.691406 -15.628906 4.726562 -15.421875 4.75 -15.234375 C 4.769531 -15.046875 4.550781 -14.78125 4.09375 -14.4375 C 3.644531 -14.09375 3.128906 -13.773438 2.546875 -13.484375 C 1.972656 -13.203125 1.476562 -13.039062 1.0625 -13 C 0.832031 -12.96875 0.644531 -13.023438 0.5 -13.171875 C 0.363281 -13.328125 0.285156 -13.515625 0.265625 -13.734375 C 0.210938 -14.253906 0.320312 -14.789062 0.59375 -15.34375 C 0.875 -15.90625 1.351562 -16.523438 2.03125 -17.203125 C 2.75 -17.960938 3.554688 -18.65625 4.453125 -19.28125 C 5.347656 -19.90625 6.226562 -20.425781 7.09375 -20.84375 C 7.96875 -21.257812 8.738281 -21.503906 9.40625 -21.578125 C 10.9375 -21.742188 12.21875 -21.375 13.25 -20.46875 C 14.28125 -19.570312 14.867188 -18.304688 15.015625 -16.671875 L 15.875 -6.4375 C 15.914062 -5.726562 16.113281 -5.148438 16.46875 -4.703125 C 16.820312 -4.253906 17.21875 -4.054688 17.65625 -4.109375 C 18.332031 -4.179688 18.851562 -4.429688 19.21875 -4.859375 C 19.34375 -5.003906 19.453125 -5.082031 19.546875 -5.09375 C 19.703125 -5.101562 19.835938 -5.054688 19.953125 -4.953125 C 20.078125 -4.859375 20.148438 -4.734375 20.171875 -4.578125 C 20.203125 -4.222656 19.992188 -3.769531 19.546875 -3.21875 C 19.023438 -2.570312 18.457031 -2.0625 17.84375 -1.6875 C 17.226562 -1.320312 16.601562 -1.101562 15.96875 -1.03125 C 14.28125 -0.851562 12.820312 -1.582031 11.59375 -3.21875 L 11.453125 -3.203125 C 10.484375 -2.171875 9.582031 -1.398438 8.75 -0.890625 C 7.925781 -0.378906 7.023438 -0.0703125 6.046875 0.03125 Z M 8.359375 -3.109375 C 8.804688 -3.160156 9.175781 -3.273438 9.46875 -3.453125 C 9.769531 -3.628906 10.019531 -3.863281 10.21875 -4.15625 C 10.332031 -4.320312 10.414062 -4.519531 10.46875 -4.75 C 10.53125 -4.988281 10.554688 -5.3125 10.546875 -5.71875 L 10.3125 -8.765625 C 10.3125 -9.097656 10.253906 -9.316406 10.140625 -9.421875 C 10.023438 -9.523438 9.90625 -9.566406 9.78125 -9.546875 C 9.71875 -9.546875 9.625 -9.53125 9.5 -9.5 C 9.375 -9.46875 9.238281 -9.394531 9.09375 -9.28125 C 7.96875 -8.664062 7.179688 -8.0625 6.734375 -7.46875 C 6.285156 -6.882812 6.101562 -6.160156 6.1875 -5.296875 C 6.28125 -4.441406 6.550781 -3.847656 7 -3.515625 C 7.457031 -3.191406 7.910156 -3.054688 8.359375 -3.109375 Z M 8.359375 -3.109375 "/></g></g></g><g fill="#c5c5c5" fill-opacity="1"><g transform="translate(149.424354, 230.548379)"><g><path d="M 4.84375 -6.515625 C 5.007812 -6.523438 5.144531 -6.484375 5.25 -6.390625 C 5.351562 -6.304688 5.410156 -6.203125 5.421875 -6.078125 C 5.429688 -5.929688 5.398438 -5.796875 5.328125 -5.671875 C 5.265625 -5.546875 5.15625 -5.441406 5 -5.359375 C 4.875 -5.296875 4.71875 -5.234375 4.53125 -5.171875 C 4.34375 -5.117188 4.128906 -5.082031 3.890625 -5.0625 C 3.710938 -5.039062 3.519531 -5.03125 3.3125 -5.03125 C 3.113281 -5.03125 2.910156 -5.023438 2.703125 -5.015625 C 2.492188 -5.015625 2.285156 -5.007812 2.078125 -5 C 1.878906 -5 1.691406 -4.992188 1.515625 -4.984375 C 1.359375 -4.960938 1.210938 -4.9375 1.078125 -4.90625 C 0.941406 -4.882812 0.835938 -4.851562 0.765625 -4.8125 C 0.890625 -4.78125 0.992188 -4.71875 1.078125 -4.625 C 1.160156 -4.539062 1.210938 -4.425781 1.234375 -4.28125 C 1.242188 -4.125 1.207031 -3.984375 1.125 -3.859375 C 1.039062 -3.734375 0.921875 -3.660156 0.765625 -3.640625 C 0.597656 -3.617188 0.460938 -3.660156 0.359375 -3.765625 C 0.265625 -3.867188 0.210938 -3.992188 0.203125 -4.140625 C 0.191406 -4.253906 0.210938 -4.375 0.265625 -4.5 C 0.316406 -4.632812 0.425781 -4.753906 0.59375 -4.859375 C 0.6875 -4.921875 0.789062 -4.96875 0.90625 -5 C 1.03125 -5.03125 1.144531 -5.050781 1.25 -5.0625 C 1.351562 -5.082031 1.4375 -5.097656 1.5 -5.109375 C 1.78125 -5.128906 2.054688 -5.140625 2.328125 -5.140625 C 2.609375 -5.148438 2.882812 -5.15625 3.15625 -5.15625 C 3.425781 -5.15625 3.6875 -5.164062 3.9375 -5.1875 C 4.113281 -5.207031 4.257812 -5.234375 4.375 -5.265625 C 4.488281 -5.296875 4.597656 -5.335938 4.703125 -5.390625 L 4.6875 -5.328125 C 4.613281 -5.367188 4.539062 -5.4375 4.46875 -5.53125 C 4.394531 -5.632812 4.351562 -5.753906 4.34375 -5.890625 C 4.320312 -6.054688 4.359375 -6.195312 4.453125 -6.3125 C 4.546875 -6.425781 4.675781 -6.492188 4.84375 -6.515625 Z M 2.375 -5.078125 C 2.375 -5.078125 2.410156 -5.078125 2.484375 -5.078125 C 2.566406 -5.078125 2.660156 -5.078125 2.765625 -5.078125 C 2.878906 -5.085938 2.988281 -5.09375 3.09375 -5.09375 C 3.195312 -5.101562 3.285156 -5.101562 3.359375 -5.09375 C 3.441406 -5.09375 3.484375 -5.09375 3.484375 -5.09375 L 2.828125 -1.109375 C 2.796875 -0.929688 2.789062 -0.789062 2.8125 -0.6875 C 2.832031 -0.59375 2.890625 -0.53125 2.984375 -0.5 C 3.078125 -0.476562 3.21875 -0.472656 3.40625 -0.484375 L 3.40625 -0.34375 C 3.257812 -0.332031 3.066406 -0.316406 2.828125 -0.296875 C 2.597656 -0.273438 2.359375 -0.25 2.109375 -0.21875 C 1.859375 -0.195312 1.625 -0.175781 1.40625 -0.15625 C 1.195312 -0.132812 1.023438 -0.113281 0.890625 -0.09375 L 0.90625 -0.234375 C 1.101562 -0.265625 1.253906 -0.300781 1.359375 -0.34375 C 1.460938 -0.394531 1.539062 -0.472656 1.59375 -0.578125 C 1.644531 -0.679688 1.6875 -0.816406 1.71875 -0.984375 Z M 2.375 -5.078125 "/></g></g></g><g fill="#c5c5c5" fill-opacity="1"><g transform="translate(155.045866, 229.988574)"><g><path d="M 1.484375 -0.890625 C 1.460938 -0.722656 1.457031 -0.597656 1.46875 -0.515625 C 1.488281 -0.429688 1.535156 -0.378906 1.609375 -0.359375 C 1.679688 -0.335938 1.796875 -0.332031 1.953125 -0.34375 L 1.9375 -0.1875 C 1.800781 -0.1875 1.628906 -0.175781 1.421875 -0.15625 C 1.222656 -0.132812 1.019531 -0.113281 0.8125 -0.09375 C 0.582031 -0.0703125 0.367188 -0.0507812 0.171875 -0.03125 C -0.015625 -0.0078125 -0.164062 0.0078125 -0.28125 0.03125 L -0.265625 -0.109375 C -0.109375 -0.140625 0.0078125 -0.171875 0.09375 -0.203125 C 0.175781 -0.234375 0.238281 -0.289062 0.28125 -0.375 C 0.320312 -0.46875 0.351562 -0.601562 0.375 -0.78125 L 0.953125 -4.34375 C 0.992188 -4.507812 1.003906 -4.632812 0.984375 -4.71875 C 0.960938 -4.800781 0.910156 -4.851562 0.828125 -4.875 C 0.753906 -4.894531 0.640625 -4.894531 0.484375 -4.875 L 0.515625 -5.015625 C 0.628906 -5.023438 0.78125 -5.035156 0.96875 -5.046875 C 1.15625 -5.066406 1.363281 -5.085938 1.59375 -5.109375 C 1.8125 -5.128906 2.019531 -5.148438 2.21875 -5.171875 C 2.425781 -5.203125 2.601562 -5.226562 2.75 -5.25 L 2.71875 -5.09375 C 2.550781 -5.082031 2.425781 -5.054688 2.34375 -5.015625 C 2.257812 -4.984375 2.195312 -4.921875 2.15625 -4.828125 C 2.125 -4.742188 2.085938 -4.617188 2.046875 -4.453125 Z M 1.484375 -0.890625 "/></g></g></g><g fill="#c5c5c5" fill-opacity="1"><g transform="translate(158.640292, 229.630632)"><g><path d="M 4.75 -5.421875 L 5.296875 -5.484375 C 5.503906 -5.503906 5.707031 -5.523438 5.90625 -5.546875 C 6.101562 -5.578125 6.273438 -5.597656 6.421875 -5.609375 L 6.390625 -5.46875 C 6.222656 -5.445312 6.097656 -5.421875 6.015625 -5.390625 C 5.929688 -5.359375 5.867188 -5.296875 5.828125 -5.203125 C 5.796875 -5.117188 5.765625 -4.988281 5.734375 -4.8125 L 5.140625 -1.25 C 5.117188 -1.082031 5.117188 -0.957031 5.140625 -0.875 C 5.160156 -0.789062 5.207031 -0.738281 5.28125 -0.71875 C 5.351562 -0.695312 5.46875 -0.691406 5.625 -0.703125 L 5.609375 -0.5625 C 5.460938 -0.550781 5.289062 -0.535156 5.09375 -0.515625 C 4.90625 -0.503906 4.707031 -0.488281 4.5 -0.46875 C 4.28125 -0.445312 4.066406 -0.425781 3.859375 -0.40625 C 3.660156 -0.382812 3.503906 -0.363281 3.390625 -0.34375 L 3.40625 -0.484375 C 3.5625 -0.503906 3.679688 -0.53125 3.765625 -0.5625 C 3.859375 -0.601562 3.925781 -0.664062 3.96875 -0.75 C 4.007812 -0.84375 4.039062 -0.972656 4.0625 -1.140625 L 4.6875 -5.015625 L 2.25 -0.1875 L 2.09375 -0.171875 L 1.125 -4.40625 L 0.5625 -0.96875 C 0.550781 -0.8125 0.550781 -0.675781 0.5625 -0.5625 C 0.570312 -0.457031 0.625 -0.378906 0.71875 -0.328125 C 0.8125 -0.273438 0.960938 -0.253906 1.171875 -0.265625 L 1.15625 -0.109375 C 1.101562 -0.109375 1.03125 -0.101562 0.9375 -0.09375 C 0.84375 -0.09375 0.742188 -0.0859375 0.640625 -0.078125 C 0.535156 -0.0664062 0.445312 -0.0546875 0.375 -0.046875 C 0.25 -0.0351562 0.125 -0.0234375 0 -0.015625 C -0.113281 -0.00390625 -0.210938 0.0078125 -0.296875 0.03125 L -0.28125 -0.109375 C -0.113281 -0.140625 0.0078125 -0.191406 0.09375 -0.265625 C 0.1875 -0.335938 0.253906 -0.429688 0.296875 -0.546875 C 0.347656 -0.660156 0.382812 -0.796875 0.40625 -0.953125 L 0.96875 -4.34375 C 1 -4.507812 1.003906 -4.632812 0.984375 -4.71875 C 0.960938 -4.800781 0.914062 -4.851562 0.84375 -4.875 C 0.769531 -4.894531 0.648438 -4.894531 0.484375 -4.875 L 0.53125 -5.015625 C 0.632812 -5.023438 0.769531 -5.035156 0.9375 -5.046875 C 1.101562 -5.066406 1.28125 -5.082031 1.46875 -5.09375 C 1.582031 -5.113281 1.691406 -5.128906 1.796875 -5.140625 C 1.910156 -5.160156 2.007812 -5.171875 2.09375 -5.171875 L 2.84375 -1.671875 Z M 4.75 -5.421875 "/></g></g></g><g fill="#c5c5c5" fill-opacity="1"><g transform="translate(165.905764, 228.907118)"><g><path d="M 1.34375 -2.5625 L 1.34375 -2.703125 L 2.734375 -2.84375 L 2.71875 -2.703125 Z M 2.046875 -2.78125 C 2.171875 -2.789062 2.28125 -2.828125 2.375 -2.890625 C 2.476562 -2.953125 2.5625 -3.023438 2.625 -3.109375 C 2.695312 -3.203125 2.753906 -3.300781 2.796875 -3.40625 C 2.847656 -3.507812 2.882812 -3.613281 2.90625 -3.71875 L 3.078125 -3.734375 C 3.015625 -3.503906 2.972656 -3.320312 2.953125 -3.1875 C 2.941406 -3.050781 2.925781 -2.914062 2.90625 -2.78125 C 2.894531 -2.695312 2.882812 -2.613281 2.875 -2.53125 C 2.863281 -2.457031 2.847656 -2.367188 2.828125 -2.265625 C 2.816406 -2.160156 2.804688 -2.03125 2.796875 -1.875 L 2.640625 -1.859375 C 2.640625 -1.941406 2.628906 -2.03125 2.609375 -2.125 C 2.585938 -2.226562 2.554688 -2.316406 2.515625 -2.390625 C 2.472656 -2.472656 2.40625 -2.535156 2.3125 -2.578125 C 2.226562 -2.617188 2.117188 -2.632812 1.984375 -2.625 Z M 3.8125 -4.109375 C 3.800781 -4.378906 3.765625 -4.59375 3.703125 -4.75 C 3.648438 -4.90625 3.5625 -5.007812 3.4375 -5.0625 C 3.3125 -5.113281 3.144531 -5.128906 2.9375 -5.109375 L 2.71875 -5.078125 C 2.5625 -5.066406 2.4375 -5.046875 2.34375 -5.015625 C 2.257812 -4.984375 2.195312 -4.921875 2.15625 -4.828125 C 2.125 -4.742188 2.085938 -4.617188 2.046875 -4.453125 L 1.484375 -0.890625 C 1.460938 -0.722656 1.457031 -0.597656 1.46875 -0.515625 C 1.488281 -0.429688 1.53125 -0.378906 1.59375 -0.359375 C 1.664062 -0.335938 1.78125 -0.332031 1.9375 -0.34375 L 2.1875 -0.375 C 2.445312 -0.40625 2.65625 -0.46875 2.8125 -0.5625 C 2.976562 -0.664062 3.117188 -0.8125 3.234375 -1 C 3.359375 -1.1875 3.472656 -1.445312 3.578125 -1.78125 L 3.75 -1.796875 C 3.726562 -1.722656 3.707031 -1.640625 3.6875 -1.546875 C 3.664062 -1.460938 3.648438 -1.367188 3.640625 -1.265625 C 3.617188 -1.171875 3.597656 -1.039062 3.578125 -0.875 C 3.554688 -0.707031 3.546875 -0.535156 3.546875 -0.359375 C 3.304688 -0.335938 3.039062 -0.3125 2.75 -0.28125 C 2.457031 -0.257812 2.191406 -0.234375 1.953125 -0.203125 C 1.835938 -0.191406 1.691406 -0.175781 1.515625 -0.15625 C 1.347656 -0.144531 1.15625 -0.128906 0.9375 -0.109375 C 0.726562 -0.0859375 0.515625 -0.0625 0.296875 -0.03125 C 0.0859375 -0.0078125 -0.109375 0.0078125 -0.296875 0.03125 L -0.28125 -0.109375 C -0.125 -0.140625 -0.00390625 -0.171875 0.078125 -0.203125 C 0.171875 -0.234375 0.238281 -0.289062 0.28125 -0.375 C 0.320312 -0.46875 0.351562 -0.601562 0.375 -0.78125 L 0.953125 -4.34375 C 0.992188 -4.507812 1.003906 -4.632812 0.984375 -4.71875 C 0.960938 -4.800781 0.910156 -4.851562 0.828125 -4.875 C 0.753906 -4.894531 0.640625 -4.894531 0.484375 -4.875 L 0.515625 -5.015625 C 0.703125 -5.035156 0.898438 -5.050781 1.109375 -5.0625 C 1.328125 -5.082031 1.539062 -5.101562 1.75 -5.125 C 1.957031 -5.144531 2.148438 -5.164062 2.328125 -5.1875 C 2.503906 -5.207031 2.65625 -5.222656 2.78125 -5.234375 C 2.988281 -5.253906 3.222656 -5.273438 3.484375 -5.296875 C 3.742188 -5.328125 3.984375 -5.359375 4.203125 -5.390625 C 4.148438 -5.234375 4.109375 -5.082031 4.078125 -4.9375 C 4.054688 -4.800781 4.035156 -4.671875 4.015625 -4.546875 C 4.003906 -4.460938 3.992188 -4.382812 3.984375 -4.3125 C 3.972656 -4.238281 3.96875 -4.175781 3.96875 -4.125 Z M 3.8125 -4.109375 "/></g></g></g><g fill="#c5c5c5" fill-opacity="1"><g transform="translate(171.144151, 228.385466)"><g><path d="M 3.78125 -1.859375 C 3.75 -1.785156 3.722656 -1.695312 3.703125 -1.59375 C 3.691406 -1.488281 3.675781 -1.378906 3.65625 -1.265625 C 3.644531 -1.179688 3.628906 -1.050781 3.609375 -0.875 C 3.585938 -0.707031 3.570312 -0.535156 3.5625 -0.359375 C 3.320312 -0.335938 3.054688 -0.3125 2.765625 -0.28125 C 2.472656 -0.257812 2.207031 -0.238281 1.96875 -0.21875 C 1.851562 -0.195312 1.707031 -0.175781 1.53125 -0.15625 C 1.363281 -0.144531 1.171875 -0.128906 0.953125 -0.109375 C 0.734375 -0.0859375 0.515625 -0.0625 0.296875 -0.03125 C 0.0859375 -0.0078125 -0.109375 0.0078125 -0.296875 0.03125 L -0.28125 -0.109375 C -0.125 -0.140625 -0.00390625 -0.171875 0.078125 -0.203125 C 0.171875 -0.234375 0.238281 -0.289062 0.28125 -0.375 C 0.320312 -0.46875 0.351562 -0.601562 0.375 -0.78125 L 0.953125 -4.34375 C 0.992188 -4.507812 1.003906 -4.632812 0.984375 -4.71875 C 0.960938 -4.800781 0.910156 -4.851562 0.828125 -4.875 C 0.753906 -4.894531 0.640625 -4.894531 0.484375 -4.875 L 0.515625 -5.015625 C 0.640625 -5.035156 0.800781 -5.050781 1 -5.0625 C 1.207031 -5.070312 1.425781 -5.09375 1.65625 -5.125 C 1.863281 -5.144531 2.0625 -5.164062 2.25 -5.1875 C 2.4375 -5.207031 2.601562 -5.226562 2.75 -5.25 L 2.71875 -5.09375 C 2.550781 -5.082031 2.425781 -5.054688 2.34375 -5.015625 C 2.257812 -4.984375 2.195312 -4.921875 2.15625 -4.828125 C 2.125 -4.742188 2.085938 -4.617188 2.046875 -4.453125 L 1.484375 -0.890625 C 1.460938 -0.722656 1.457031 -0.597656 1.46875 -0.515625 C 1.488281 -0.429688 1.53125 -0.378906 1.59375 -0.359375 C 1.664062 -0.335938 1.78125 -0.332031 1.9375 -0.34375 L 2.21875 -0.375 C 2.425781 -0.394531 2.613281 -0.457031 2.78125 -0.5625 C 2.957031 -0.664062 3.117188 -0.820312 3.265625 -1.03125 C 3.410156 -1.238281 3.53125 -1.507812 3.625 -1.84375 Z M 3.78125 -1.859375 "/></g></g></g><g fill="#c5c5c5" fill-opacity="1"><g transform="translate(176.236254, 227.878382)"><g><path d="M 1.34375 -2.5625 L 1.34375 -2.703125 L 2.734375 -2.84375 L 2.71875 -2.703125 Z M 2.046875 -2.78125 C 2.171875 -2.789062 2.28125 -2.828125 2.375 -2.890625 C 2.476562 -2.953125 2.5625 -3.023438 2.625 -3.109375 C 2.695312 -3.203125 2.753906 -3.300781 2.796875 -3.40625 C 2.847656 -3.507812 2.882812 -3.613281 2.90625 -3.71875 L 3.078125 -3.734375 C 3.015625 -3.503906 2.972656 -3.320312 2.953125 -3.1875 C 2.941406 -3.050781 2.925781 -2.914062 2.90625 -2.78125 C 2.894531 -2.695312 2.882812 -2.613281 2.875 -2.53125 C 2.863281 -2.457031 2.847656 -2.367188 2.828125 -2.265625 C 2.816406 -2.160156 2.804688 -2.03125 2.796875 -1.875 L 2.640625 -1.859375 C 2.640625 -1.941406 2.628906 -2.03125 2.609375 -2.125 C 2.585938 -2.226562 2.554688 -2.316406 2.515625 -2.390625 C 2.472656 -2.472656 2.40625 -2.535156 2.3125 -2.578125 C 2.226562 -2.617188 2.117188 -2.632812 1.984375 -2.625 Z M 3.8125 -4.109375 C 3.800781 -4.378906 3.765625 -4.59375 3.703125 -4.75 C 3.648438 -4.90625 3.5625 -5.007812 3.4375 -5.0625 C 3.3125 -5.113281 3.144531 -5.128906 2.9375 -5.109375 L 2.71875 -5.078125 C 2.5625 -5.066406 2.4375 -5.046875 2.34375 -5.015625 C 2.257812 -4.984375 2.195312 -4.921875 2.15625 -4.828125 C 2.125 -4.742188 2.085938 -4.617188 2.046875 -4.453125 L 1.484375 -0.890625 C 1.460938 -0.722656 1.457031 -0.597656 1.46875 -0.515625 C 1.488281 -0.429688 1.53125 -0.378906 1.59375 -0.359375 C 1.664062 -0.335938 1.78125 -0.332031 1.9375 -0.34375 L 2.1875 -0.375 C 2.445312 -0.40625 2.65625 -0.46875 2.8125 -0.5625 C 2.976562 -0.664062 3.117188 -0.8125 3.234375 -1 C 3.359375 -1.1875 3.472656 -1.445312 3.578125 -1.78125 L 3.75 -1.796875 C 3.726562 -1.722656 3.707031 -1.640625 3.6875 -1.546875 C 3.664062 -1.460938 3.648438 -1.367188 3.640625 -1.265625 C 3.617188 -1.171875 3.597656 -1.039062 3.578125 -0.875 C 3.554688 -0.707031 3.546875 -0.535156 3.546875 -0.359375 C 3.304688 -0.335938 3.039062 -0.3125 2.75 -0.28125 C 2.457031 -0.257812 2.191406 -0.234375 1.953125 -0.203125 C 1.835938 -0.191406 1.691406 -0.175781 1.515625 -0.15625 C 1.347656 -0.144531 1.15625 -0.128906 0.9375 -0.109375 C 0.726562 -0.0859375 0.515625 -0.0625 0.296875 -0.03125 C 0.0859375 -0.0078125 -0.109375 0.0078125 -0.296875 0.03125 L -0.28125 -0.109375 C -0.125 -0.140625 -0.00390625 -0.171875 0.078125 -0.203125 C 0.171875 -0.234375 0.238281 -0.289062 0.28125 -0.375 C 0.320312 -0.46875 0.351562 -0.601562 0.375 -0.78125 L 0.953125 -4.34375 C 0.992188 -4.507812 1.003906 -4.632812 0.984375 -4.71875 C 0.960938 -4.800781 0.910156 -4.851562 0.828125 -4.875 C 0.753906 -4.894531 0.640625 -4.894531 0.484375 -4.875 L 0.515625 -5.015625 C 0.703125 -5.035156 0.898438 -5.050781 1.109375 -5.0625 C 1.328125 -5.082031 1.539062 -5.101562 1.75 -5.125 C 1.957031 -5.144531 2.148438 -5.164062 2.328125 -5.1875 C 2.503906 -5.207031 2.65625 -5.222656 2.78125 -5.234375 C 2.988281 -5.253906 3.222656 -5.273438 3.484375 -5.296875 C 3.742188 -5.328125 3.984375 -5.359375 4.203125 -5.390625 C 4.148438 -5.234375 4.109375 -5.082031 4.078125 -4.9375 C 4.054688 -4.800781 4.035156 -4.671875 4.015625 -4.546875 C 4.003906 -4.460938 3.992188 -4.382812 3.984375 -4.3125 C 3.972656 -4.238281 3.96875 -4.175781 3.96875 -4.125 Z M 3.8125 -4.109375 "/></g></g></g><g fill="#c5c5c5" fill-opacity="1"><g transform="translate(181.474641, 227.35673)"><g><path d="M 3.828125 -5.40625 C 3.785156 -5.28125 3.738281 -5.097656 3.6875 -4.859375 C 3.632812 -4.628906 3.585938 -4.328125 3.546875 -3.953125 L 3.40625 -3.9375 C 3.425781 -4 3.429688 -4.066406 3.421875 -4.140625 C 3.421875 -4.210938 3.421875 -4.273438 3.421875 -4.328125 C 3.398438 -4.503906 3.34375 -4.660156 3.25 -4.796875 C 3.15625 -4.929688 3.03125 -5.023438 2.875 -5.078125 C 2.726562 -5.140625 2.546875 -5.160156 2.328125 -5.140625 C 2.097656 -5.117188 1.90625 -5.039062 1.75 -4.90625 C 1.59375 -4.78125 1.53125 -4.582031 1.5625 -4.3125 C 1.570312 -4.144531 1.625 -3.988281 1.71875 -3.84375 C 1.8125 -3.695312 1.925781 -3.554688 2.0625 -3.421875 C 2.207031 -3.285156 2.359375 -3.148438 2.515625 -3.015625 C 2.671875 -2.890625 2.816406 -2.757812 2.953125 -2.625 C 3.097656 -2.488281 3.21875 -2.335938 3.3125 -2.171875 C 3.40625 -2.015625 3.460938 -1.84375 3.484375 -1.65625 C 3.503906 -1.40625 3.460938 -1.1875 3.359375 -1 C 3.253906 -0.8125 3.109375 -0.648438 2.921875 -0.515625 C 2.742188 -0.390625 2.546875 -0.289062 2.328125 -0.21875 C 2.109375 -0.144531 1.894531 -0.0976562 1.6875 -0.078125 C 1.476562 -0.0546875 1.300781 -0.0507812 1.15625 -0.0625 C 1.007812 -0.0703125 0.878906 -0.0976562 0.765625 -0.140625 C 0.660156 -0.179688 0.5625 -0.222656 0.46875 -0.265625 C 0.40625 -0.296875 0.351562 -0.316406 0.3125 -0.328125 C 0.269531 -0.347656 0.234375 -0.351562 0.203125 -0.34375 C 0.140625 -0.34375 0.09375 -0.3125 0.0625 -0.25 C 0.03125 -0.1875 -0.0078125 -0.0859375 -0.0625 0.046875 L -0.203125 0.0625 C -0.171875 -0.0390625 -0.132812 -0.160156 -0.09375 -0.296875 C -0.0625 -0.441406 -0.03125 -0.617188 0 -0.828125 C 0.0390625 -1.046875 0.0820312 -1.316406 0.125 -1.640625 L 0.265625 -1.65625 C 0.242188 -1.582031 0.226562 -1.492188 0.21875 -1.390625 C 0.21875 -1.296875 0.226562 -1.203125 0.25 -1.109375 C 0.289062 -0.773438 0.414062 -0.53125 0.625 -0.375 C 0.84375 -0.226562 1.132812 -0.175781 1.5 -0.21875 C 1.800781 -0.238281 2.015625 -0.320312 2.140625 -0.46875 C 2.273438 -0.613281 2.332031 -0.800781 2.3125 -1.03125 C 2.289062 -1.21875 2.234375 -1.390625 2.140625 -1.546875 C 2.054688 -1.710938 1.945312 -1.859375 1.8125 -1.984375 C 1.6875 -2.117188 1.554688 -2.242188 1.421875 -2.359375 C 1.296875 -2.484375 1.164062 -2.613281 1.03125 -2.75 C 0.90625 -2.882812 0.796875 -3.03125 0.703125 -3.1875 C 0.617188 -3.351562 0.566406 -3.535156 0.546875 -3.734375 C 0.523438 -3.972656 0.554688 -4.179688 0.640625 -4.359375 C 0.722656 -4.546875 0.84375 -4.703125 1 -4.828125 C 1.15625 -4.960938 1.332031 -5.066406 1.53125 -5.140625 C 1.726562 -5.210938 1.921875 -5.257812 2.109375 -5.28125 C 2.390625 -5.300781 2.617188 -5.285156 2.796875 -5.234375 C 2.972656 -5.191406 3.125 -5.148438 3.25 -5.109375 C 3.289062 -5.078125 3.335938 -5.050781 3.390625 -5.03125 C 3.441406 -5.019531 3.476562 -5.015625 3.5 -5.015625 C 3.5625 -5.023438 3.625 -5.148438 3.6875 -5.390625 Z M 3.828125 -5.40625 "/></g></g></g><g fill="#c5c5c5" fill-opacity="1"><g transform="translate(186.441356, 226.862132)"><g><path d="M 3.828125 -5.40625 C 3.785156 -5.28125 3.738281 -5.097656 3.6875 -4.859375 C 3.632812 -4.628906 3.585938 -4.328125 3.546875 -3.953125 L 3.40625 -3.9375 C 3.425781 -4 3.429688 -4.066406 3.421875 -4.140625 C 3.421875 -4.210938 3.421875 -4.273438 3.421875 -4.328125 C 3.398438 -4.503906 3.34375 -4.660156 3.25 -4.796875 C 3.15625 -4.929688 3.03125 -5.023438 2.875 -5.078125 C 2.726562 -5.140625 2.546875 -5.160156 2.328125 -5.140625 C 2.097656 -5.117188 1.90625 -5.039062 1.75 -4.90625 C 1.59375 -4.78125 1.53125 -4.582031 1.5625 -4.3125 C 1.570312 -4.144531 1.625 -3.988281 1.71875 -3.84375 C 1.8125 -3.695312 1.925781 -3.554688 2.0625 -3.421875 C 2.207031 -3.285156 2.359375 -3.148438 2.515625 -3.015625 C 2.671875 -2.890625 2.816406 -2.757812 2.953125 -2.625 C 3.097656 -2.488281 3.21875 -2.335938 3.3125 -2.171875 C 3.40625 -2.015625 3.460938 -1.84375 3.484375 -1.65625 C 3.503906 -1.40625 3.460938 -1.1875 3.359375 -1 C 3.253906 -0.8125 3.109375 -0.648438 2.921875 -0.515625 C 2.742188 -0.390625 2.546875 -0.289062 2.328125 -0.21875 C 2.109375 -0.144531 1.894531 -0.0976562 1.6875 -0.078125 C 1.476562 -0.0546875 1.300781 -0.0507812 1.15625 -0.0625 C 1.007812 -0.0703125 0.878906 -0.0976562 0.765625 -0.140625 C 0.660156 -0.179688 0.5625 -0.222656 0.46875 -0.265625 C 0.40625 -0.296875 0.351562 -0.316406 0.3125 -0.328125 C 0.269531 -0.347656 0.234375 -0.351562 0.203125 -0.34375 C 0.140625 -0.34375 0.09375 -0.3125 0.0625 -0.25 C 0.03125 -0.1875 -0.0078125 -0.0859375 -0.0625 0.046875 L -0.203125 0.0625 C -0.171875 -0.0390625 -0.132812 -0.160156 -0.09375 -0.296875 C -0.0625 -0.441406 -0.03125 -0.617188 0 -0.828125 C 0.0390625 -1.046875 0.0820312 -1.316406 0.125 -1.640625 L 0.265625 -1.65625 C 0.242188 -1.582031 0.226562 -1.492188 0.21875 -1.390625 C 0.21875 -1.296875 0.226562 -1.203125 0.25 -1.109375 C 0.289062 -0.773438 0.414062 -0.53125 0.625 -0.375 C 0.84375 -0.226562 1.132812 -0.175781 1.5 -0.21875 C 1.800781 -0.238281 2.015625 -0.320312 2.140625 -0.46875 C 2.273438 -0.613281 2.332031 -0.800781 2.3125 -1.03125 C 2.289062 -1.21875 2.234375 -1.390625 2.140625 -1.546875 C 2.054688 -1.710938 1.945312 -1.859375 1.8125 -1.984375 C 1.6875 -2.117188 1.554688 -2.242188 1.421875 -2.359375 C 1.296875 -2.484375 1.164062 -2.613281 1.03125 -2.75 C 0.90625 -2.882812 0.796875 -3.03125 0.703125 -3.1875 C 0.617188 -3.351562 0.566406 -3.535156 0.546875 -3.734375 C 0.523438 -3.972656 0.554688 -4.179688 0.640625 -4.359375 C 0.722656 -4.546875 0.84375 -4.703125 1 -4.828125 C 1.15625 -4.960938 1.332031 -5.066406 1.53125 -5.140625 C 1.726562 -5.210938 1.921875 -5.257812 2.109375 -5.28125 C 2.390625 -5.300781 2.617188 -5.285156 2.796875 -5.234375 C 2.972656 -5.191406 3.125 -5.148438 3.25 -5.109375 C 3.289062 -5.078125 3.335938 -5.050781 3.390625 -5.03125 C 3.441406 -5.019531 3.476562 -5.015625 3.5 -5.015625 C 3.5625 -5.023438 3.625 -5.148438 3.6875 -5.390625 Z M 3.828125 -5.40625 "/></g></g></g><g fill="#c5c5c5" fill-opacity="1"><g transform="translate(191.408069, 226.367534)"><g/></g></g><g fill="#c5c5c5" fill-opacity="1"><g transform="translate(194.062093, 226.10324)"><g><path d="M 1.34375 -2.5625 L 1.34375 -2.703125 L 2.734375 -2.84375 L 2.71875 -2.703125 Z M 2.046875 -2.78125 C 2.171875 -2.789062 2.28125 -2.828125 2.375 -2.890625 C 2.476562 -2.953125 2.5625 -3.023438 2.625 -3.109375 C 2.695312 -3.203125 2.753906 -3.300781 2.796875 -3.40625 C 2.847656 -3.507812 2.882812 -3.613281 2.90625 -3.71875 L 3.078125 -3.734375 C 3.015625 -3.503906 2.972656 -3.320312 2.953125 -3.1875 C 2.941406 -3.050781 2.925781 -2.914062 2.90625 -2.78125 C 2.894531 -2.695312 2.882812 -2.613281 2.875 -2.53125 C 2.863281 -2.457031 2.847656 -2.367188 2.828125 -2.265625 C 2.816406 -2.160156 2.804688 -2.03125 2.796875 -1.875 L 2.640625 -1.859375 C 2.640625 -1.941406 2.628906 -2.03125 2.609375 -2.125 C 2.585938 -2.226562 2.554688 -2.316406 2.515625 -2.390625 C 2.472656 -2.472656 2.40625 -2.535156 2.3125 -2.578125 C 2.226562 -2.617188 2.117188 -2.632812 1.984375 -2.625 Z M 3.8125 -4.109375 C 3.800781 -4.378906 3.765625 -4.59375 3.703125 -4.75 C 3.648438 -4.90625 3.5625 -5.007812 3.4375 -5.0625 C 3.3125 -5.113281 3.144531 -5.128906 2.9375 -5.109375 L 2.71875 -5.078125 C 2.5625 -5.066406 2.4375 -5.046875 2.34375 -5.015625 C 2.257812 -4.984375 2.195312 -4.921875 2.15625 -4.828125 C 2.125 -4.742188 2.085938 -4.617188 2.046875 -4.453125 L 1.484375 -0.890625 C 1.460938 -0.722656 1.457031 -0.597656 1.46875 -0.515625 C 1.488281 -0.429688 1.53125 -0.378906 1.59375 -0.359375 C 1.664062 -0.335938 1.78125 -0.332031 1.9375 -0.34375 L 2.1875 -0.375 C 2.445312 -0.40625 2.65625 -0.46875 2.8125 -0.5625 C 2.976562 -0.664062 3.117188 -0.8125 3.234375 -1 C 3.359375 -1.1875 3.472656 -1.445312 3.578125 -1.78125 L 3.75 -1.796875 C 3.726562 -1.722656 3.707031 -1.640625 3.6875 -1.546875 C 3.664062 -1.460938 3.648438 -1.367188 3.640625 -1.265625 C 3.617188 -1.171875 3.597656 -1.039062 3.578125 -0.875 C 3.554688 -0.707031 3.546875 -0.535156 3.546875 -0.359375 C 3.304688 -0.335938 3.039062 -0.3125 2.75 -0.28125 C 2.457031 -0.257812 2.191406 -0.234375 1.953125 -0.203125 C 1.835938 -0.191406 1.691406 -0.175781 1.515625 -0.15625 C 1.347656 -0.144531 1.15625 -0.128906 0.9375 -0.109375 C 0.726562 -0.0859375 0.515625 -0.0625 0.296875 -0.03125 C 0.0859375 -0.0078125 -0.109375 0.0078125 -0.296875 0.03125 L -0.28125 -0.109375 C -0.125 -0.140625 -0.00390625 -0.171875 0.078125 -0.203125 C 0.171875 -0.234375 0.238281 -0.289062 0.28125 -0.375 C 0.320312 -0.46875 0.351562 -0.601562 0.375 -0.78125 L 0.953125 -4.34375 C 0.992188 -4.507812 1.003906 -4.632812 0.984375 -4.71875 C 0.960938 -4.800781 0.910156 -4.851562 0.828125 -4.875 C 0.753906 -4.894531 0.640625 -4.894531 0.484375 -4.875 L 0.515625 -5.015625 C 0.703125 -5.035156 0.898438 -5.050781 1.109375 -5.0625 C 1.328125 -5.082031 1.539062 -5.101562 1.75 -5.125 C 1.957031 -5.144531 2.148438 -5.164062 2.328125 -5.1875 C 2.503906 -5.207031 2.65625 -5.222656 2.78125 -5.234375 C 2.988281 -5.253906 3.222656 -5.273438 3.484375 -5.296875 C 3.742188 -5.328125 3.984375 -5.359375 4.203125 -5.390625 C 4.148438 -5.234375 4.109375 -5.082031 4.078125 -4.9375 C 4.054688 -4.800781 4.035156 -4.671875 4.015625 -4.546875 C 4.003906 -4.460938 3.992188 -4.382812 3.984375 -4.3125 C 3.972656 -4.238281 3.96875 -4.175781 3.96875 -4.125 Z M 3.8125 -4.109375 "/></g></g></g><g fill="#c5c5c5" fill-opacity="1"><g transform="translate(199.300479, 225.581588)"><g><path d="M 3.78125 -1.859375 C 3.75 -1.785156 3.722656 -1.695312 3.703125 -1.59375 C 3.691406 -1.488281 3.675781 -1.378906 3.65625 -1.265625 C 3.644531 -1.179688 3.628906 -1.050781 3.609375 -0.875 C 3.585938 -0.707031 3.570312 -0.535156 3.5625 -0.359375 C 3.320312 -0.335938 3.054688 -0.3125 2.765625 -0.28125 C 2.472656 -0.257812 2.207031 -0.238281 1.96875 -0.21875 C 1.851562 -0.195312 1.707031 -0.175781 1.53125 -0.15625 C 1.363281 -0.144531 1.171875 -0.128906 0.953125 -0.109375 C 0.734375 -0.0859375 0.515625 -0.0625 0.296875 -0.03125 C 0.0859375 -0.0078125 -0.109375 0.0078125 -0.296875 0.03125 L -0.28125 -0.109375 C -0.125 -0.140625 -0.00390625 -0.171875 0.078125 -0.203125 C 0.171875 -0.234375 0.238281 -0.289062 0.28125 -0.375 C 0.320312 -0.46875 0.351562 -0.601562 0.375 -0.78125 L 0.953125 -4.34375 C 0.992188 -4.507812 1.003906 -4.632812 0.984375 -4.71875 C 0.960938 -4.800781 0.910156 -4.851562 0.828125 -4.875 C 0.753906 -4.894531 0.640625 -4.894531 0.484375 -4.875 L 0.515625 -5.015625 C 0.640625 -5.035156 0.800781 -5.050781 1 -5.0625 C 1.207031 -5.070312 1.425781 -5.09375 1.65625 -5.125 C 1.863281 -5.144531 2.0625 -5.164062 2.25 -5.1875 C 2.4375 -5.207031 2.601562 -5.226562 2.75 -5.25 L 2.71875 -5.09375 C 2.550781 -5.082031 2.425781 -5.054688 2.34375 -5.015625 C 2.257812 -4.984375 2.195312 -4.921875 2.15625 -4.828125 C 2.125 -4.742188 2.085938 -4.617188 2.046875 -4.453125 L 1.484375 -0.890625 C 1.460938 -0.722656 1.457031 -0.597656 1.46875 -0.515625 C 1.488281 -0.429688 1.53125 -0.378906 1.59375 -0.359375 C 1.664062 -0.335938 1.78125 -0.332031 1.9375 -0.34375 L 2.21875 -0.375 C 2.425781 -0.394531 2.613281 -0.457031 2.78125 -0.5625 C 2.957031 -0.664062 3.117188 -0.820312 3.265625 -1.03125 C 3.410156 -1.238281 3.53125 -1.507812 3.625 -1.84375 Z M 3.78125 -1.859375 "/></g></g></g><g fill="#c5c5c5" fill-opacity="1"><g transform="translate(204.392582, 225.074504)"><g><path d="M 1.34375 -2.5625 L 1.34375 -2.703125 L 2.734375 -2.84375 L 2.71875 -2.703125 Z M 2.046875 -2.78125 C 2.171875 -2.789062 2.28125 -2.828125 2.375 -2.890625 C 2.476562 -2.953125 2.5625 -3.023438 2.625 -3.109375 C 2.695312 -3.203125 2.753906 -3.300781 2.796875 -3.40625 C 2.847656 -3.507812 2.882812 -3.613281 2.90625 -3.71875 L 3.078125 -3.734375 C 3.015625 -3.503906 2.972656 -3.320312 2.953125 -3.1875 C 2.941406 -3.050781 2.925781 -2.914062 2.90625 -2.78125 C 2.894531 -2.695312 2.882812 -2.613281 2.875 -2.53125 C 2.863281 -2.457031 2.847656 -2.367188 2.828125 -2.265625 C 2.816406 -2.160156 2.804688 -2.03125 2.796875 -1.875 L 2.640625 -1.859375 C 2.640625 -1.941406 2.628906 -2.03125 2.609375 -2.125 C 2.585938 -2.226562 2.554688 -2.316406 2.515625 -2.390625 C 2.472656 -2.472656 2.40625 -2.535156 2.3125 -2.578125 C 2.226562 -2.617188 2.117188 -2.632812 1.984375 -2.625 Z M 3.8125 -4.109375 C 3.800781 -4.378906 3.765625 -4.59375 3.703125 -4.75 C 3.648438 -4.90625 3.5625 -5.007812 3.4375 -5.0625 C 3.3125 -5.113281 3.144531 -5.128906 2.9375 -5.109375 L 2.71875 -5.078125 C 2.5625 -5.066406 2.4375 -5.046875 2.34375 -5.015625 C 2.257812 -4.984375 2.195312 -4.921875 2.15625 -4.828125 C 2.125 -4.742188 2.085938 -4.617188 2.046875 -4.453125 L 1.484375 -0.890625 C 1.460938 -0.722656 1.457031 -0.597656 1.46875 -0.515625 C 1.488281 -0.429688 1.53125 -0.378906 1.59375 -0.359375 C 1.664062 -0.335938 1.78125 -0.332031 1.9375 -0.34375 L 2.1875 -0.375 C 2.445312 -0.40625 2.65625 -0.46875 2.8125 -0.5625 C 2.976562 -0.664062 3.117188 -0.8125 3.234375 -1 C 3.359375 -1.1875 3.472656 -1.445312 3.578125 -1.78125 L 3.75 -1.796875 C 3.726562 -1.722656 3.707031 -1.640625 3.6875 -1.546875 C 3.664062 -1.460938 3.648438 -1.367188 3.640625 -1.265625 C 3.617188 -1.171875 3.597656 -1.039062 3.578125 -0.875 C 3.554688 -0.707031 3.546875 -0.535156 3.546875 -0.359375 C 3.304688 -0.335938 3.039062 -0.3125 2.75 -0.28125 C 2.457031 -0.257812 2.191406 -0.234375 1.953125 -0.203125 C 1.835938 -0.191406 1.691406 -0.175781 1.515625 -0.15625 C 1.347656 -0.144531 1.15625 -0.128906 0.9375 -0.109375 C 0.726562 -0.0859375 0.515625 -0.0625 0.296875 -0.03125 C 0.0859375 -0.0078125 -0.109375 0.0078125 -0.296875 0.03125 L -0.28125 -0.109375 C -0.125 -0.140625 -0.00390625 -0.171875 0.078125 -0.203125 C 0.171875 -0.234375 0.238281 -0.289062 0.28125 -0.375 C 0.320312 -0.46875 0.351562 -0.601562 0.375 -0.78125 L 0.953125 -4.34375 C 0.992188 -4.507812 1.003906 -4.632812 0.984375 -4.71875 C 0.960938 -4.800781 0.910156 -4.851562 0.828125 -4.875 C 0.753906 -4.894531 0.640625 -4.894531 0.484375 -4.875 L 0.515625 -5.015625 C 0.703125 -5.035156 0.898438 -5.050781 1.109375 -5.0625 C 1.328125 -5.082031 1.539062 -5.101562 1.75 -5.125 C 1.957031 -5.144531 2.148438 -5.164062 2.328125 -5.1875 C 2.503906 -5.207031 2.65625 -5.222656 2.78125 -5.234375 C 2.988281 -5.253906 3.222656 -5.273438 3.484375 -5.296875 C 3.742188 -5.328125 3.984375 -5.359375 4.203125 -5.390625 C 4.148438 -5.234375 4.109375 -5.082031 4.078125 -4.9375 C 4.054688 -4.800781 4.035156 -4.671875 4.015625 -4.546875 C 4.003906 -4.460938 3.992188 -4.382812 3.984375 -4.3125 C 3.972656 -4.238281 3.96875 -4.175781 3.96875 -4.125 Z M 3.8125 -4.109375 "/></g></g></g><g fill="#c5c5c5" fill-opacity="1"><g transform="translate(209.630969, 224.552852)"><g><path d="M 2.359375 -0.28125 C 2.460938 -0.289062 2.5625 -0.3125 2.65625 -0.34375 C 2.75 -0.382812 2.828125 -0.429688 2.890625 -0.484375 C 2.960938 -0.535156 3.015625 -0.601562 3.046875 -0.6875 C 3.078125 -0.769531 3.101562 -0.878906 3.125 -1.015625 L 3.21875 -1.640625 C 3.25 -1.835938 3.253906 -1.984375 3.234375 -2.078125 C 3.210938 -2.171875 3.15625 -2.226562 3.0625 -2.25 C 2.96875 -2.269531 2.820312 -2.269531 2.625 -2.25 L 2.65625 -2.390625 C 2.757812 -2.398438 2.878906 -2.410156 3.015625 -2.421875 C 3.148438 -2.429688 3.289062 -2.441406 3.4375 -2.453125 C 3.582031 -2.472656 3.71875 -2.488281 3.84375 -2.5 C 4.050781 -2.519531 4.238281 -2.539062 4.40625 -2.5625 C 4.570312 -2.582031 4.707031 -2.597656 4.8125 -2.609375 L 4.78125 -2.46875 C 4.675781 -2.457031 4.597656 -2.429688 4.546875 -2.390625 C 4.503906 -2.359375 4.46875 -2.296875 4.4375 -2.203125 C 4.414062 -2.117188 4.382812 -2 4.34375 -1.84375 L 4.109375 -0.40625 L 3.96875 -0.390625 C 3.96875 -0.515625 3.945312 -0.613281 3.90625 -0.6875 C 3.863281 -0.757812 3.804688 -0.789062 3.734375 -0.78125 C 3.640625 -0.769531 3.546875 -0.734375 3.453125 -0.671875 C 3.359375 -0.609375 3.265625 -0.546875 3.171875 -0.484375 C 3.003906 -0.378906 2.84375 -0.296875 2.6875 -0.234375 C 2.53125 -0.179688 2.363281 -0.144531 2.1875 -0.125 C 1.59375 -0.0625 1.109375 -0.148438 0.734375 -0.390625 C 0.367188 -0.640625 0.160156 -1.019531 0.109375 -1.53125 C 0.078125 -1.84375 0.0976562 -2.164062 0.171875 -2.5 C 0.242188 -2.84375 0.359375 -3.175781 0.515625 -3.5 C 0.679688 -3.832031 0.890625 -4.132812 1.140625 -4.40625 C 1.398438 -4.675781 1.691406 -4.894531 2.015625 -5.0625 C 2.347656 -5.226562 2.710938 -5.332031 3.109375 -5.375 C 3.410156 -5.40625 3.648438 -5.382812 3.828125 -5.3125 C 4.003906 -5.238281 4.160156 -5.148438 4.296875 -5.046875 C 4.359375 -4.992188 4.421875 -4.992188 4.484375 -5.046875 C 4.546875 -5.097656 4.601562 -5.226562 4.65625 -5.4375 L 4.8125 -5.453125 C 4.75 -5.273438 4.691406 -5.050781 4.640625 -4.78125 C 4.597656 -4.519531 4.554688 -4.195312 4.515625 -3.8125 L 4.375 -3.796875 C 4.375 -3.890625 4.367188 -3.976562 4.359375 -4.0625 C 4.359375 -4.15625 4.351562 -4.242188 4.34375 -4.328125 C 4.34375 -4.421875 4.332031 -4.507812 4.3125 -4.59375 C 4.289062 -4.675781 4.253906 -4.753906 4.203125 -4.828125 C 4.097656 -4.992188 3.945312 -5.109375 3.75 -5.171875 C 3.5625 -5.242188 3.335938 -5.269531 3.078125 -5.25 C 2.796875 -5.21875 2.546875 -5.113281 2.328125 -4.9375 C 2.109375 -4.757812 1.921875 -4.519531 1.765625 -4.21875 C 1.617188 -3.925781 1.503906 -3.613281 1.421875 -3.28125 C 1.335938 -2.945312 1.28125 -2.613281 1.25 -2.28125 C 1.21875 -1.957031 1.21875 -1.671875 1.25 -1.421875 C 1.289062 -0.992188 1.398438 -0.6875 1.578125 -0.5 C 1.765625 -0.320312 2.023438 -0.25 2.359375 -0.28125 Z M 2.359375 -0.28125 "/></g></g></g><g fill="#c5c5c5" fill-opacity="1"><g transform="translate(215.656504, 223.952814)"><g><path d="M 0.328125 -1.046875 C 0.203125 -0.828125 0.140625 -0.65625 0.140625 -0.53125 C 0.148438 -0.40625 0.210938 -0.316406 0.328125 -0.265625 C 0.441406 -0.222656 0.585938 -0.207031 0.765625 -0.21875 L 0.75 -0.078125 C 0.550781 -0.0664062 0.378906 -0.0507812 0.234375 -0.03125 C 0.0976562 -0.0195312 -0.03125 -0.0078125 -0.15625 0 C -0.269531 0.0078125 -0.359375 0.015625 -0.421875 0.015625 C -0.492188 0.0234375 -0.566406 0.0390625 -0.640625 0.0625 L -0.625 -0.078125 C -0.539062 -0.109375 -0.460938 -0.148438 -0.390625 -0.203125 C -0.328125 -0.265625 -0.253906 -0.351562 -0.171875 -0.46875 C -0.0976562 -0.582031 -0.015625 -0.722656 0.078125 -0.890625 L 2.578125 -5.265625 C 2.640625 -5.265625 2.703125 -5.265625 2.765625 -5.265625 C 2.828125 -5.273438 2.882812 -5.285156 2.9375 -5.296875 L 3.65625 -0.96875 C 3.6875 -0.800781 3.738281 -0.6875 3.8125 -0.625 C 3.894531 -0.5625 3.972656 -0.535156 4.046875 -0.546875 L 4.03125 -0.40625 C 3.914062 -0.40625 3.757812 -0.394531 3.5625 -0.375 C 3.375 -0.351562 3.191406 -0.332031 3.015625 -0.3125 C 2.804688 -0.289062 2.609375 -0.269531 2.421875 -0.25 C 2.234375 -0.238281 2.082031 -0.222656 1.96875 -0.203125 L 1.984375 -0.34375 C 2.203125 -0.375 2.351562 -0.429688 2.4375 -0.515625 C 2.53125 -0.597656 2.554688 -0.757812 2.515625 -1 L 2.03125 -4.171875 L 2.25 -4.453125 Z M 0.875 -2.109375 L 2.890625 -2.3125 L 2.859375 -2.15625 L 0.75 -1.953125 Z M 0.875 -2.109375 "/></g></g></g><g fill="#c5c5c5" fill-opacity="1"><g transform="translate(221.082972, 223.412433)"><g><path d="M 3.65625 -0.328125 L 1.5 -4.03125 C 1.5 -4.03125 1.492188 -4.046875 1.484375 -4.078125 C 1.484375 -4.117188 1.476562 -4.160156 1.46875 -4.203125 C 1.46875 -4.253906 1.460938 -4.296875 1.453125 -4.328125 C 1.453125 -4.367188 1.453125 -4.390625 1.453125 -4.390625 C 1.472656 -4.554688 1.472656 -4.679688 1.453125 -4.765625 C 1.429688 -4.847656 1.375 -4.898438 1.28125 -4.921875 C 1.195312 -4.941406 1.070312 -4.941406 0.90625 -4.921875 L 0.9375 -5.0625 C 1.007812 -5.070312 1.097656 -5.078125 1.203125 -5.078125 C 1.304688 -5.085938 1.421875 -5.097656 1.546875 -5.109375 C 1.765625 -5.128906 1.953125 -5.15625 2.109375 -5.1875 L 3.921875 -1.953125 C 3.921875 -1.953125 3.914062 -1.914062 3.90625 -1.84375 C 3.90625 -1.769531 3.898438 -1.671875 3.890625 -1.546875 C 3.878906 -1.421875 3.875 -1.285156 3.875 -1.140625 C 3.875 -1.003906 3.867188 -0.878906 3.859375 -0.765625 C 3.847656 -0.648438 3.835938 -0.550781 3.828125 -0.46875 C 3.816406 -0.382812 3.8125 -0.34375 3.8125 -0.34375 Z M 5.28125 -5.6875 C 5.15625 -5.675781 5.046875 -5.628906 4.953125 -5.546875 C 4.867188 -5.472656 4.796875 -5.378906 4.734375 -5.265625 C 4.546875 -4.929688 4.378906 -4.351562 4.234375 -3.53125 C 4.097656 -2.71875 3.957031 -1.65625 3.8125 -0.34375 L 3.703125 -0.53125 C 3.742188 -0.84375 3.785156 -1.179688 3.828125 -1.546875 C 3.867188 -1.921875 3.914062 -2.296875 3.96875 -2.671875 C 4.019531 -3.046875 4.078125 -3.398438 4.140625 -3.734375 C 4.210938 -4.066406 4.285156 -4.367188 4.359375 -4.640625 C 4.429688 -4.921875 4.507812 -5.140625 4.59375 -5.296875 C 4.675781 -5.429688 4.773438 -5.550781 4.890625 -5.65625 C 5.003906 -5.757812 5.144531 -5.816406 5.3125 -5.828125 C 5.53125 -5.847656 5.703125 -5.800781 5.828125 -5.6875 C 5.953125 -5.582031 6.019531 -5.457031 6.03125 -5.3125 C 6.050781 -5.132812 6.003906 -4.976562 5.890625 -4.84375 C 5.785156 -4.707031 5.640625 -4.628906 5.453125 -4.609375 C 5.296875 -4.597656 5.171875 -4.625 5.078125 -4.6875 C 4.992188 -4.757812 4.945312 -4.851562 4.9375 -4.96875 C 4.914062 -5.132812 4.953125 -5.273438 5.046875 -5.390625 C 5.140625 -5.515625 5.257812 -5.609375 5.40625 -5.671875 C 5.382812 -5.679688 5.363281 -5.6875 5.34375 -5.6875 C 5.320312 -5.6875 5.300781 -5.6875 5.28125 -5.6875 Z M 0.171875 0.375 C 0.304688 0.363281 0.414062 0.316406 0.5 0.234375 C 0.59375 0.160156 0.671875 0.0546875 0.734375 -0.078125 C 0.847656 -0.296875 0.945312 -0.640625 1.03125 -1.109375 C 1.125 -1.578125 1.207031 -2.140625 1.28125 -2.796875 C 1.363281 -3.460938 1.441406 -4.1875 1.515625 -4.96875 L 1.640625 -4.828125 C 1.597656 -4.453125 1.554688 -4.0625 1.515625 -3.65625 C 1.472656 -3.25 1.429688 -2.851562 1.390625 -2.46875 C 1.347656 -2.09375 1.296875 -1.738281 1.234375 -1.40625 C 1.179688 -1.082031 1.117188 -0.796875 1.046875 -0.546875 C 0.984375 -0.304688 0.914062 -0.125 0.84375 0 C 0.78125 0.113281 0.691406 0.222656 0.578125 0.328125 C 0.472656 0.429688 0.328125 0.488281 0.140625 0.5 C -0.0664062 0.519531 -0.234375 0.476562 -0.359375 0.375 C -0.484375 0.28125 -0.550781 0.148438 -0.5625 -0.015625 C -0.582031 -0.191406 -0.539062 -0.347656 -0.4375 -0.484375 C -0.332031 -0.628906 -0.1875 -0.707031 0 -0.71875 C 0.15625 -0.738281 0.28125 -0.710938 0.375 -0.640625 C 0.46875 -0.578125 0.519531 -0.484375 0.53125 -0.359375 C 0.550781 -0.203125 0.515625 -0.0625 0.421875 0.0625 C 0.328125 0.1875 0.207031 0.285156 0.0625 0.359375 C 0.0703125 0.367188 0.0859375 0.375 0.109375 0.375 C 0.128906 0.375 0.148438 0.375 0.171875 0.375 Z M 0.171875 0.375 "/></g></g></g><g fill="#c5c5c5" fill-opacity="1"><g transform="translate(227.707581, 222.752737)"><g><path d="M 4.703125 -5.4375 C 4.640625 -5.257812 4.582031 -5.035156 4.53125 -4.765625 C 4.488281 -4.503906 4.453125 -4.179688 4.421875 -3.796875 L 4.28125 -3.78125 C 4.289062 -4.03125 4.285156 -4.242188 4.265625 -4.421875 C 4.242188 -4.597656 4.191406 -4.75 4.109375 -4.875 C 3.992188 -5.019531 3.863281 -5.117188 3.71875 -5.171875 C 3.570312 -5.222656 3.410156 -5.242188 3.234375 -5.234375 C 2.992188 -5.203125 2.769531 -5.113281 2.5625 -4.96875 C 2.363281 -4.832031 2.1875 -4.644531 2.03125 -4.40625 C 1.875 -4.164062 1.738281 -3.894531 1.625 -3.59375 C 1.519531 -3.289062 1.445312 -2.972656 1.40625 -2.640625 C 1.363281 -2.304688 1.359375 -1.976562 1.390625 -1.65625 C 1.441406 -1.175781 1.5625 -0.832031 1.75 -0.625 C 1.9375 -0.414062 2.171875 -0.328125 2.453125 -0.359375 C 2.628906 -0.367188 2.8125 -0.421875 3 -0.515625 C 3.1875 -0.617188 3.34375 -0.753906 3.46875 -0.921875 C 3.582031 -1.066406 3.675781 -1.226562 3.75 -1.40625 C 3.820312 -1.582031 3.898438 -1.804688 3.984375 -2.078125 L 4.140625 -2.09375 C 4.066406 -1.664062 4.007812 -1.316406 3.96875 -1.046875 C 3.9375 -0.785156 3.910156 -0.566406 3.890625 -0.390625 L 3.75 -0.375 C 3.75 -0.46875 3.75 -0.546875 3.75 -0.609375 C 3.738281 -0.710938 3.710938 -0.769531 3.671875 -0.78125 C 3.628906 -0.789062 3.570312 -0.765625 3.5 -0.703125 C 3.382812 -0.609375 3.257812 -0.519531 3.125 -0.4375 C 3 -0.351562 2.859375 -0.285156 2.703125 -0.234375 C 2.546875 -0.179688 2.367188 -0.144531 2.171875 -0.125 C 1.546875 -0.0625 1.0625 -0.164062 0.71875 -0.4375 C 0.382812 -0.707031 0.191406 -1.113281 0.140625 -1.65625 C 0.109375 -1.976562 0.125 -2.304688 0.1875 -2.640625 C 0.257812 -2.984375 0.382812 -3.3125 0.5625 -3.625 C 0.738281 -3.9375 0.945312 -4.21875 1.1875 -4.46875 C 1.4375 -4.71875 1.722656 -4.921875 2.046875 -5.078125 C 2.378906 -5.234375 2.738281 -5.332031 3.125 -5.375 C 3.320312 -5.394531 3.484375 -5.390625 3.609375 -5.359375 C 3.742188 -5.328125 3.859375 -5.285156 3.953125 -5.234375 C 4.046875 -5.179688 4.132812 -5.117188 4.21875 -5.046875 C 4.269531 -4.984375 4.320312 -4.984375 4.375 -5.046875 C 4.4375 -5.109375 4.5 -5.234375 4.5625 -5.421875 Z M 4.703125 -5.4375 "/></g></g></g><g fill="#c5c5c5" fill-opacity="1"><g transform="translate(233.412679, 222.184609)"><g><path d="M 1.34375 -2.5625 L 1.34375 -2.703125 L 2.734375 -2.84375 L 2.71875 -2.703125 Z M 2.046875 -2.78125 C 2.171875 -2.789062 2.28125 -2.828125 2.375 -2.890625 C 2.476562 -2.953125 2.5625 -3.023438 2.625 -3.109375 C 2.695312 -3.203125 2.753906 -3.300781 2.796875 -3.40625 C 2.847656 -3.507812 2.882812 -3.613281 2.90625 -3.71875 L 3.078125 -3.734375 C 3.015625 -3.503906 2.972656 -3.320312 2.953125 -3.1875 C 2.941406 -3.050781 2.925781 -2.914062 2.90625 -2.78125 C 2.894531 -2.695312 2.882812 -2.613281 2.875 -2.53125 C 2.863281 -2.457031 2.847656 -2.367188 2.828125 -2.265625 C 2.816406 -2.160156 2.804688 -2.03125 2.796875 -1.875 L 2.640625 -1.859375 C 2.640625 -1.941406 2.628906 -2.03125 2.609375 -2.125 C 2.585938 -2.226562 2.554688 -2.316406 2.515625 -2.390625 C 2.472656 -2.472656 2.40625 -2.535156 2.3125 -2.578125 C 2.226562 -2.617188 2.117188 -2.632812 1.984375 -2.625 Z M 3.8125 -4.109375 C 3.800781 -4.378906 3.765625 -4.59375 3.703125 -4.75 C 3.648438 -4.90625 3.5625 -5.007812 3.4375 -5.0625 C 3.3125 -5.113281 3.144531 -5.128906 2.9375 -5.109375 L 2.71875 -5.078125 C 2.5625 -5.066406 2.4375 -5.046875 2.34375 -5.015625 C 2.257812 -4.984375 2.195312 -4.921875 2.15625 -4.828125 C 2.125 -4.742188 2.085938 -4.617188 2.046875 -4.453125 L 1.484375 -0.890625 C 1.460938 -0.722656 1.457031 -0.597656 1.46875 -0.515625 C 1.488281 -0.429688 1.53125 -0.378906 1.59375 -0.359375 C 1.664062 -0.335938 1.78125 -0.332031 1.9375 -0.34375 L 2.1875 -0.375 C 2.445312 -0.40625 2.65625 -0.46875 2.8125 -0.5625 C 2.976562 -0.664062 3.117188 -0.8125 3.234375 -1 C 3.359375 -1.1875 3.472656 -1.445312 3.578125 -1.78125 L 3.75 -1.796875 C 3.726562 -1.722656 3.707031 -1.640625 3.6875 -1.546875 C 3.664062 -1.460938 3.648438 -1.367188 3.640625 -1.265625 C 3.617188 -1.171875 3.597656 -1.039062 3.578125 -0.875 C 3.554688 -0.707031 3.546875 -0.535156 3.546875 -0.359375 C 3.304688 -0.335938 3.039062 -0.3125 2.75 -0.28125 C 2.457031 -0.257812 2.191406 -0.234375 1.953125 -0.203125 C 1.835938 -0.191406 1.691406 -0.175781 1.515625 -0.15625 C 1.347656 -0.144531 1.15625 -0.128906 0.9375 -0.109375 C 0.726562 -0.0859375 0.515625 -0.0625 0.296875 -0.03125 C 0.0859375 -0.0078125 -0.109375 0.0078125 -0.296875 0.03125 L -0.28125 -0.109375 C -0.125 -0.140625 -0.00390625 -0.171875 0.078125 -0.203125 C 0.171875 -0.234375 0.238281 -0.289062 0.28125 -0.375 C 0.320312 -0.46875 0.351562 -0.601562 0.375 -0.78125 L 0.953125 -4.34375 C 0.992188 -4.507812 1.003906 -4.632812 0.984375 -4.71875 C 0.960938 -4.800781 0.910156 -4.851562 0.828125 -4.875 C 0.753906 -4.894531 0.640625 -4.894531 0.484375 -4.875 L 0.515625 -5.015625 C 0.703125 -5.035156 0.898438 -5.050781 1.109375 -5.0625 C 1.328125 -5.082031 1.539062 -5.101562 1.75 -5.125 C 1.957031 -5.144531 2.148438 -5.164062 2.328125 -5.1875 C 2.503906 -5.207031 2.65625 -5.222656 2.78125 -5.234375 C 2.988281 -5.253906 3.222656 -5.273438 3.484375 -5.296875 C 3.742188 -5.328125 3.984375 -5.359375 4.203125 -5.390625 C 4.148438 -5.234375 4.109375 -5.082031 4.078125 -4.9375 C 4.054688 -4.800781 4.035156 -4.671875 4.015625 -4.546875 C 4.003906 -4.460938 3.992188 -4.382812 3.984375 -4.3125 C 3.972656 -4.238281 3.96875 -4.175781 3.96875 -4.125 Z M 3.8125 -4.109375 "/></g></g></g></svg>